<svg
className="css-ze2te4 css-qd6ojx"
viewBox="0 0 100 99.237"
width="1em"
height="1em"
>
<path
  xmlns="http://www.w3.org/2000/svg"
  fill="#62c1bf"
  d="M23.282 18.448c3.181 0 5.853-2.672 5.853-5.853s-2.672-5.852-5.853-5.852c-3.18 0-5.852 2.672-5.852 5.852s2.672 5.853 5.852 5.853zm-3.18 41.348c0 .891.763 1.654 1.654 1.654.89 0 1.654-.763 1.654-1.654s-.764-1.654-1.654-1.654c-.89 0-1.654.764-1.654 1.654zm11.705-33.969c1.4 0 2.417-1.145 2.417-2.417 0-1.4-1.145-2.418-2.417-2.418-1.4 0-2.418 1.145-2.418 2.418 0 1.272 1.018 2.417 2.418 2.417zm-19.212 22.01c3.181 0 5.853-2.672 5.853-5.852s-2.672-5.853-5.853-5.853-5.852 2.672-5.852 5.853c.127 3.18 2.672 5.852 5.852 5.852zm-8.397-13.74c1.4 0 2.418-1.145 2.418-2.418 0-1.4-1.145-2.417-2.418-2.417-1.399 0-2.417 1.145-2.417 2.417 0 1.4 1.018 2.418 2.417 2.418zm-.89 5.343c0-.89-.763-1.654-1.654-1.654-.89 0-1.654.764-1.654 1.654s.763 1.654 1.654 1.654c.89 0 1.654-.763 1.654-1.654zm7.76-13.74c2.29 0 4.072-1.781 4.072-4.072s-1.781-4.07-4.071-4.07-4.072 1.78-4.072 4.07S8.78 25.7 11.07 25.7zM60.56 3.308c.89 0 1.654-.763 1.654-1.654C62.214.764 61.45 0 60.56 0c-.89 0-1.654.763-1.654 1.654 0 .89.763 1.654 1.654 1.654zM16.03 59.16a7.113 7.113 0 0 0-7.124-7.124c-3.944 0-7.125 3.18-7.125 7.124s3.18 7.125 7.125 7.125a7.113 7.113 0 0 0 7.125-7.125zm71.375-30.025c3.18 0 5.852-2.672 5.852-5.853s-2.672-5.852-5.852-5.852-5.853 2.672-5.853 5.852 2.545 5.853 5.853 5.853zM74.3 69.338c0 2.29 1.781 4.072 4.071 4.072s4.072-1.782 4.072-4.072-1.781-4.07-4.072-4.07c-2.29 0-4.07 1.78-4.07 4.07zm4.071-54.198c2.29 0 4.072-1.781 4.072-4.071s-1.781-4.072-4.072-4.072c-2.29 0-4.07 1.782-4.07 4.072s1.78 4.07 4.07 4.07zM69.338 25.7c2.29 0 4.072-1.781 4.072-4.072s-1.782-4.07-4.072-4.07-4.07 1.78-4.07 4.07 1.78 4.072 4.07 4.072zM83.97 40.076a7.113 7.113 0 0 0 7.125 7.125c3.944 0 7.125-3.18 7.125-7.125s-3.18-7.124-7.125-7.124a7.113 7.113 0 0 0-7.125 7.124zm-4.07-.636c0-.89-.764-1.654-1.655-1.654-.89 0-1.654.764-1.654 1.654s.764 1.654 1.654 1.654c.89 0 1.654-.763 1.654-1.654zM68.192 6.49c1.4 0 2.418-1.145 2.418-2.418s-1.145-2.417-2.418-2.417c-1.4 0-2.417 1.145-2.417 2.417s1.145 2.418 2.417 2.418zm7.634 27.608c1.4 0 2.417-1.145 2.417-2.418 0-1.4-1.145-2.417-2.417-2.417s-2.417 1.145-2.417 2.417c0 1.4 1.145 2.418 2.417 2.418zM25.7 29.898c0-2.29-1.781-4.071-4.072-4.071-2.29 0-4.07 1.781-4.07 4.071s1.78 4.071 4.07 4.071S25.7 32.19 25.7 29.9zM68.193 73.41c-1.4 0-2.417 1.145-2.417 2.417 0 1.4 1.145 2.417 2.417 2.417 1.4 0 2.418-1.145 2.418-2.417 0-1.272-1.018-2.417-2.418-2.417zm-8.27 9.796c-3.943 0-7.124 3.18-7.124 7.125s3.18 7.124 7.125 7.124c3.944 0 7.124-3.18 7.124-7.124s-3.18-7.125-7.124-7.125zm16.795-2.417c-3.181 0-5.853 2.672-5.853 5.852s2.672 5.853 5.853 5.853c3.18 0 5.852-2.672 5.852-5.853s-2.672-5.852-5.852-5.852zm-17.812-2.545c0 .89.763 1.654 1.654 1.654.89 0 1.654-.763 1.654-1.654 0-.89-.764-1.654-1.654-1.654-.89.128-1.654.764-1.654 1.654zm39.44-20.102c-.89 0-1.654.764-1.654 1.654s.763 1.654 1.654 1.654c.89 0 1.654-.763 1.654-1.654s-.89-1.654-1.654-1.654zm-2.544 6.998c-1.4 0-2.418 1.145-2.418 2.417 0 1.4 1.145 2.418 2.418 2.418 1.399 0 2.417-1.145 2.417-2.418 0-1.4-1.018-2.417-2.417-2.417zm-38.55-46.692c3.18 0 5.852-2.672 5.852-5.853s-2.671-5.852-5.852-5.852-5.853 2.672-5.853 5.852 2.672 5.853 5.853 5.853zm30.153 32.951c-3.181 0-5.853 2.672-5.853 5.853 0 3.18 2.672 5.852 5.853 5.852s5.852-2.671 5.852-5.852c-.127-3.18-2.672-5.853-5.852-5.853zm-74.81 18.703c-3.18 0-5.852 2.672-5.852 5.852s2.672 5.853 5.852 5.853 5.853-2.672 5.853-5.853-2.545-5.852-5.853-5.852zm76.336 3.435c-2.29 0-4.071 1.781-4.071 4.071s1.781 4.071 4.071 4.071 4.072-1.78 4.072-4.07-1.782-4.072-4.072-4.072zM24.173 65.14c-1.4 0-2.417 1.145-2.417 2.417 0 1.4 1.145 2.418 2.417 2.418s2.417-1.145 2.417-2.418c0-1.4-1.145-2.417-2.417-2.417zm6.489 8.397c-2.29 0-4.072 1.781-4.072 4.071s1.781 4.071 4.072 4.071c2.29 0 4.07-1.78 4.07-4.07s-1.78-4.072-4.07-4.072zm1.145 19.211c-1.4 0-2.418 1.145-2.418 2.417s1.145 2.418 2.418 2.418c1.4 0 2.417-1.145 2.417-2.418s-1.145-2.417-2.417-2.417zm-10.179-8.651c-2.29 0-4.07 1.78-4.07 4.07 0 2.291 1.78 4.072 4.07 4.072s4.072-1.781 4.072-4.071-1.781-4.071-4.072-4.071zm16.285-63.105c0 .89.764 1.654 1.654 1.654.891 0 1.654-.763 1.654-1.654 0-.89-.763-1.654-1.654-1.654-1.017 0-1.654.764-1.654 1.654zM47.201 8.78a7.113 7.113 0 0 0-7.125-7.125c-3.944 0-7.124 3.18-7.124 7.125s3.18 7.124 7.124 7.124c3.944.128 7.125-3.053 7.125-7.124zm-7.76 87.15c-.891 0-1.655.763-1.655 1.654 0 .89.764 1.654 1.654 1.654.89 0 1.654-.764 1.654-1.654 0-.89-.763-1.654-1.654-1.654zm3.307-15.14c-3.18 0-5.852 2.672-5.852 5.852s2.671 5.853 5.852 5.853 5.853-2.672 5.853-5.853-2.672-5.852-5.853-5.852z"
  className="css-12ya9ev"
/>
</svg>