<svg
className="css-88gl6m"
viewBox="0 0 250 176.636"
width="1em"
height="1em"
>
<path
  xmlns="http://www.w3.org/2000/svg"
  fill="#111"
  d="M98.282 18.448c3.181 0 5.853-2.672 5.853-5.853s-2.672-5.852-5.853-5.852c-3.18 0-5.852 2.672-5.852 5.852s2.672 5.853 5.852 5.853zm-3.18 41.348c0 .891.763 1.654 1.654 1.654.89 0 1.654-.763 1.654-1.654s-.764-1.654-1.654-1.654c-.89 0-1.654.764-1.654 1.654zm11.705-33.969c1.4 0 2.417-1.145 2.417-2.417 0-1.4-1.145-2.418-2.417-2.418-1.4 0-2.418 1.145-2.418 2.418 0 1.272 1.018 2.417 2.418 2.417zm-19.212 22.01c3.181 0 5.853-2.672 5.853-5.852s-2.672-5.853-5.853-5.853-5.852 2.672-5.852 5.853c.127 3.18 2.672 5.852 5.852 5.852zm-8.397-13.74c1.4 0 2.418-1.145 2.418-2.418 0-1.4-1.145-2.417-2.418-2.417-1.399 0-2.417 1.145-2.417 2.417 0 1.4 1.018 2.418 2.417 2.418zm-.89 5.343c0-.89-.763-1.654-1.654-1.654-.89 0-1.654.764-1.654 1.654s.763 1.654 1.654 1.654c.89 0 1.654-.763 1.654-1.654zm7.76-13.74c2.29 0 4.072-1.781 4.072-4.072s-1.781-4.07-4.071-4.07-4.072 1.78-4.072 4.07S83.78 25.7 86.07 25.7zM135.56 3.308c.89 0 1.654-.763 1.654-1.654 0-.89-.764-1.654-1.654-1.654-.89 0-1.654.763-1.654 1.654 0 .89.763 1.654 1.654 1.654zM91.03 59.16a7.113 7.113 0 0 0-7.124-7.124c-3.944 0-7.125 3.18-7.125 7.124s3.18 7.125 7.125 7.125a7.113 7.113 0 0 0 7.125-7.125zm71.375-30.025c3.18 0 5.852-2.672 5.852-5.853s-2.672-5.852-5.852-5.852-5.853 2.672-5.853 5.852 2.545 5.853 5.853 5.853zM149.3 69.338c0 2.29 1.781 4.072 4.071 4.072s4.072-1.782 4.072-4.072-1.781-4.07-4.072-4.07c-2.29 0-4.07 1.78-4.07 4.07zm4.071-54.198c2.29 0 4.072-1.781 4.072-4.071s-1.781-4.072-4.072-4.072c-2.29 0-4.07 1.782-4.07 4.072s1.78 4.07 4.07 4.07zm-9.033 10.56c2.29 0 4.072-1.781 4.072-4.072s-1.782-4.07-4.072-4.07-4.07 1.78-4.07 4.07 1.78 4.072 4.07 4.072zm14.631 14.376a7.113 7.113 0 0 0 7.125 7.125c3.944 0 7.125-3.18 7.125-7.125s-3.18-7.124-7.125-7.124a7.113 7.113 0 0 0-7.125 7.124zm-4.07-.636c0-.89-.764-1.654-1.655-1.654-.89 0-1.654.764-1.654 1.654s.764 1.654 1.654 1.654c.89 0 1.654-.763 1.654-1.654zM143.192 6.49c1.4 0 2.418-1.145 2.418-2.418s-1.145-2.417-2.418-2.417c-1.4 0-2.417 1.145-2.417 2.417s1.145 2.418 2.417 2.418zm7.634 27.608c1.4 0 2.417-1.145 2.417-2.418 0-1.4-1.145-2.417-2.417-2.417s-2.417 1.145-2.417 2.417c0 1.4 1.145 2.418 2.417 2.418zM100.7 29.898c0-2.29-1.781-4.071-4.072-4.071-2.29 0-4.07 1.781-4.07 4.071s1.78 4.071 4.07 4.071 4.072-1.78 4.072-4.07zm42.493 43.512c-1.4 0-2.417 1.145-2.417 2.417 0 1.4 1.145 2.417 2.417 2.417 1.4 0 2.418-1.145 2.418-2.417 0-1.272-1.018-2.417-2.418-2.417zm-8.27 9.796c-3.943 0-7.124 3.18-7.124 7.125s3.18 7.124 7.125 7.124c3.944 0 7.124-3.18 7.124-7.124s-3.18-7.125-7.124-7.125zm16.795-2.417c-3.181 0-5.853 2.672-5.853 5.852s2.672 5.853 5.853 5.853c3.18 0 5.852-2.672 5.852-5.853s-2.672-5.852-5.852-5.852zm-17.812-2.545c0 .89.763 1.654 1.654 1.654.89 0 1.654-.763 1.654-1.654 0-.89-.764-1.654-1.654-1.654-.89.128-1.654.764-1.654 1.654zm39.44-20.102c-.89 0-1.654.764-1.654 1.654s.763 1.654 1.654 1.654c.89 0 1.654-.763 1.654-1.654s-.89-1.654-1.654-1.654zm-2.544 6.998c-1.4 0-2.418 1.145-2.418 2.417 0 1.4 1.145 2.418 2.418 2.418 1.399 0 2.417-1.145 2.417-2.418 0-1.4-1.018-2.417-2.417-2.417zm-38.55-46.692c3.18 0 5.852-2.672 5.852-5.853s-2.671-5.852-5.852-5.852-5.853 2.672-5.853 5.852 2.672 5.853 5.853 5.853zm30.153 32.951c-3.181 0-5.853 2.672-5.853 5.853 0 3.18 2.672 5.852 5.853 5.852s5.852-2.671 5.852-5.852c-.127-3.18-2.672-5.853-5.852-5.853zm-74.81 18.703c-3.18 0-5.852 2.672-5.852 5.852s2.672 5.853 5.852 5.853 5.853-2.672 5.853-5.853-2.545-5.852-5.853-5.852zm76.336 3.435c-2.29 0-4.071 1.781-4.071 4.071s1.781 4.071 4.071 4.071 4.072-1.78 4.072-4.07-1.782-4.072-4.072-4.072zM99.173 65.14c-1.4 0-2.417 1.145-2.417 2.417 0 1.4 1.145 2.418 2.417 2.418s2.417-1.145 2.417-2.418c0-1.4-1.145-2.417-2.417-2.417zm6.489 8.397c-2.29 0-4.072 1.781-4.072 4.071s1.781 4.071 4.072 4.071c2.29 0 4.07-1.78 4.07-4.07s-1.78-4.072-4.07-4.072zm1.145 19.211c-1.4 0-2.418 1.145-2.418 2.417s1.145 2.418 2.418 2.418c1.4 0 2.417-1.145 2.417-2.418s-1.145-2.417-2.417-2.417zm-10.179-8.651c-2.29 0-4.07 1.78-4.07 4.07 0 2.291 1.78 4.072 4.07 4.072s4.072-1.781 4.072-4.071-1.781-4.071-4.072-4.071zm16.285-63.105c0 .89.764 1.654 1.654 1.654.891 0 1.654-.763 1.654-1.654 0-.89-.763-1.654-1.654-1.654-1.017 0-1.654.764-1.654 1.654zm9.288-12.213a7.113 7.113 0 0 0-7.125-7.125c-3.944 0-7.124 3.18-7.124 7.125s3.18 7.124 7.124 7.124c3.944.128 7.125-3.053 7.125-7.124zm-7.76 87.15c-.891 0-1.655.763-1.655 1.654 0 .89.764 1.654 1.654 1.654.89 0 1.654-.764 1.654-1.654 0-.89-.763-1.654-1.654-1.654zm3.307-15.14c-3.18 0-5.852 2.672-5.852 5.852s2.671 5.853 5.852 5.853 5.853-2.672 5.853-5.853-2.672-5.852-5.853-5.852z"
/>
<path
  fill="#111"
  d="M33.06 119.962h8.746v55.887H33.06V150.4H8.746v25.45H0v-55.887h8.746v21.69H33.06v-21.69zm57.286 4.985c3.761 3.411 5.86 8.309 5.86 13.557 0 5.335-2.099 10.145-5.86 13.643-1.749 1.575-3.76 2.887-6.034 3.761a20.524 20.524 0 0 1-6.91 1.225H62.184v18.716h-8.746v-55.974h23.964c2.362 0 4.723.437 6.91 1.312 2.274.874 4.285 2.099 6.034 3.76zm-12.944 23.44c4.81 0 10.058-3.411 10.058-9.883s-5.247-9.883-10.058-9.883H62.184v19.766h15.218zm50.465 28.25c-8.396 0-19.154-2.362-22.652-3.674l3.06-8.221c3.237 1.224 16.793 4.023 23.178 2.886 2.186-.35 3.935-2.362 4.285-4.636.35-2.973-1.836-5.86-6.122-7.87-2.624-1.225-7.522-3.324-11.457-4.986-2.274-.962-4.286-1.837-5.51-2.362-3.149-1.399-5.773-3.585-7.522-6.122-1.662-2.536-2.536-5.422-2.449-8.396.088-2.799.962-5.423 2.624-7.696 1.662-2.362 4.023-4.111 6.822-5.16 3.76-1.487 9.183-1.487 16.093-.263 5.247 1.05 9.97 2.536 11.982 3.236l-3.061 8.221c-1.575-.612-5.86-1.924-10.583-2.798-7.172-1.4-10.32-.613-11.282-.263-2.362.875-3.761 2.711-3.849 4.985-.087 2.537 1.75 4.898 4.81 6.298 1.138.437 3.15 1.311 5.423 2.274 3.936 1.749 8.921 3.848 11.72 5.16 4.023 1.924 6.997 4.373 8.92 7.434 1.837 2.973 2.537 6.21 2.1 9.533-.787 6.035-5.51 10.932-11.37 11.982a31.537 31.537 0 0 1-5.16.437zm67.694-49.328c4.023 4.985 6.122 11.894 6.122 20.553s-2.099 15.568-6.122 20.553c-2.186 2.711-4.985 4.723-8.221 6.122s-6.91 2.1-11.02 2.1-7.784-.7-11.02-2.1-6.035-3.41-8.221-6.122c-4.024-4.985-6.123-11.895-6.123-20.553s2.1-15.568 6.123-20.553c2.186-2.712 4.985-4.81 8.22-6.21S172.21 119 176.32 119s7.785.7 11.02 2.099 6.036 3.498 8.222 6.21zm-6.734 35.596c2.71-3.323 4.11-8.571 4.11-15.043 0-6.56-1.4-11.72-4.11-15.043s-6.91-5.073-12.507-5.073c-5.51 0-9.708 1.75-12.42 5.073s-4.198 8.483-4.198 15.043c0 6.472 1.487 11.72 4.198 15.043s6.91 4.985 12.42 4.985c5.597 0 9.795-1.661 12.507-4.985zm44.517 13.731c-8.396 0-19.154-2.361-22.652-3.673l3.06-8.221c3.237 1.224 16.793 4.023 23.178 2.886 2.186-.35 3.935-2.362 4.285-4.636.35-2.973-1.836-5.86-6.122-7.87-2.624-1.225-7.521-3.324-11.457-4.986-2.274-.962-4.286-1.837-5.51-2.362-3.149-1.399-5.773-3.585-7.522-6.122-1.662-2.536-2.536-5.422-2.449-8.396.088-2.799.962-5.423 2.624-7.696 1.662-2.362 4.023-4.111 6.822-5.16 3.76-1.487 9.183-1.487 16.093-.263 5.247 1.05 9.97 2.536 11.982 3.236l-3.061 8.221c-1.575-.612-5.86-1.924-10.583-2.798-7.172-1.4-10.32-.613-11.282-.263-2.362.875-3.761 2.711-3.849 4.985-.087 2.537 1.75 4.898 4.81 6.298 1.138.437 3.15 1.311 5.423 2.274 3.936 1.749 8.921 3.848 11.72 5.16 4.023 1.924 6.997 4.373 8.92 7.434 1.837 2.973 2.537 6.21 2.1 9.533-.787 6.035-5.51 10.932-11.37 11.982a31.537 31.537 0 0 1-5.16.437z"
/>
</svg>