<svg
className="css-8aabad"
viewBox="0 0 250 298.367"
width="1em"
height="1em"
>
<g fill="#fff">
  <path
    xmlns="http://www.w3.org/2000/svg"
    d="M23.706 160.425zm5.747 7.31a109.76 109.76 0 0 0 7.102 7.574c8.377 8.246 18.367 15.176 29.084 20.418 3.95 1.849 7.591 3.765 11.859 5.414 1.066.41 2.155.848 3.3 1.243 1.155.366 2.352.732 3.604 1.094 1.244.389 2.571.665 3.958.952 1.389.279 2.83.598 4.38.756a110.552 110.552 0 0 1-22.336-7.258 113.694 113.694 0 0 1-20.445-11.925c-12.78-9.362-23.712-21.383-31.697-35.125-.33-.41-.83-1.193-1.43-2.19l-.964-1.634-.973-1.879c-.647-1.304-1.392-2.627-1.963-3.909a86.368 86.368 0 0 0-1.607-3.33c2.482 6.181 5.346 11.588 8.553 16.729a113.258 113.258 0 0 0 4.688 6.903c-.232-.314-.475-.62-.706-.934a115.122 115.122 0 0 0 5.574 7.077l.019.024zm-5.595-7.103-.152-.206.152.206zm-20.24-52.145-.585-4.695c.31 2.866.67 6.068 1.328 9.274l-.396-2.277a29.033 29.033 0 0 1-.347-2.302zm102.358 96.367c8.06.816 16.512.572 24.791-.738 8.284-1.305 16.387-3.619 23.92-6.602-13.874 5.456-28.598 7.883-43.002 7.477-1.928-.03-3.828 0-5.71-.137z"
  />
  <path
    xmlns="http://www.w3.org/2000/svg"
    d="m58.253 188.366-.314-.2c.106.067.209.135.314.2zm-.314-.2zm-3.046-2.02zm15.054 8.662a101.582 101.582 0 0 0 20.747 7.047c-11.739-2.677-22.785-7.402-32.441-13.489 3.708 2.36 7.606 4.543 11.694 6.442zm146.52-85.046c.119-1.915.359-3.923.42-4.88.719-6.144.932-11.39.902-16.654-.133-.948-.515-2.726-.667-4.747-.185-2.026-.458-4.01-.688-5.966-.35-1.94-.652-3.86-1.035-5.744 2.757 14.076 2.711 28.207.175 41.539a115.072 115.072 0 0 1 .893-3.548z"
  />
  <path
    xmlns="http://www.w3.org/2000/svg"
    d="M3.075 81.152c1.028-8.36 3.215-16.51 5.295-21.94l-.842 3.975c.52-1.165 1.36-3.87 2.505-6.733l.826-2.184.912-2.117c.606-1.37 1.115-2.669 1.652-3.665-.367.934-.721 1.941-1.148 2.952-.418 1.014-.887 2.044-1.334 3.08l1.835-4.13a135.54 135.54 0 0 0-4.773 14.184C6.63 69.847 5.545 75.39 4.961 80.364c-.17 1.241-.23 2.453-.34 3.609-.08 1.156-.221 2.258-.232 3.3-.051 2.083-.122 3.907-.086 5.366.127 2.919.302 4.374.556 3.56.498-1.614.488-9.92 2.226-20.315.929-5.181 2.263-10.864 4.073-16.431 1.797-5.573 4.153-10.976 6.592-15.742l-.718 1.565-.66 1.613-1.352 3.26-1.241 3.369-.631 1.699c-.186.576-.373 1.155-.559 1.737-1.6 4.613-2.795 9.47-3.837 14.367l-.678 3.698c-.248 1.228-.353 2.479-.537 3.716-.386 2.473-.526 4.964-.74 7.426-.242 4.936-.29 9.812.157 14.475-.018-1.108-.037-2.092-.02-3.044l.138-2.853c.059-.98.048-2.02.14-3.211.085-1.191.162-2.534.23-4.122.474-8.007 1.905-15.934 4.13-23.605 2.12-7.704 4.62-14.488 8.346-20.634l.971-1.85c.657-1.24 1.203-2.464 1.897-3.712.792-1.37 1.549-2.394 2.162-3.333.631-.93 1.167-1.746 1.78-2.539l4.461-6.157c.091-.011-.026.224-.242.573a35.092 35.092 0 0 1 2.374-3.017c.914-1.06 1.803-2.185 2.555-3.113.177-.009.349-.013.755-.304C47.11 8.57 60.01-.51 74.545-6.235l3.232-1.26 3.271-1.089 1.627-.542 1.648-.46 3.284-.913c1.878-.452 3.78-.91 5.72-1.322l2.953-.516c.992-.171 1.99-.364 3.01-.458 2.028-.244 3.797-.758 4.75-.884 5.294-.301 10.578-.24 16.78.262.482.009 1.23.052 2.1.1.868.05 1.862.073 2.825.162 1.13.254 2.335.506 3.6.752 7.717 1.197 15.178 3.337 22.277 6.183l-.008-.033 2.719 1.083 2.775 1.282c1.903.828 3.768 1.889 5.694 2.887.967.493 1.883 1.095 2.833 1.64.933.575 1.91 1.084 2.811 1.712 1.828 1.214 3.68 2.376 5.387 3.673a121.06 121.06 0 0 1 7.997 6.298c.056.051.114.099.17.148l.05.046 1.766 1.602 1.69 1.686 1.69 1.686c.56.566 1.078 1.172 1.62 1.756-.262-.424-.252-.595-.243-.763-.835-.8-1.822-1.746-2.797-2.678 1.627 1.48 3.047 2.82 4.213 3.912.45.575.94 1.14 1.405 1.756l1.437 1.897 1.528 1.974 1.52 2.123c2.698 3.439 5.079 7.117 7.34 10.869 1.047 1.924 2.201 3.793 3.133 5.784l1.47 2.952 1.323 3.025c.38.646.233.027.28-.082 1.484 3.589 2.678 7.32 3.758 11.082a106.883 106.883 0 0 1 4.13 20.854c.272 1.67.389 3.358.63 5.032l-.15 3.543c0 1.336.07 2.672.013 4.011l-.155 4.03c-.02.91-.15 1.901-.227 2.98-.102 1.076-.155 2.237-.31 3.46l-.5 3.868c-.16 1.356-.468 2.75-.706 4.206a109.819 109.819 0 0 1-5.224 18.759c-.294 1-.518 1.8-.718 2.247-.76 1.819-1.57 3.58-2.353 5.313-.876 1.69-1.679 3.378-2.577 4.978a104.312 104.312 0 0 1-9.631 14.999c-.407.532-.787 1.072-1.196 1.572l-1.21 1.46c-.8.945-1.514 1.889-2.273 2.708-1.515 1.638-2.788 3.157-3.981 4.3-1.367 1.427-1.244 1.494-.298.806a42.493 42.493 0 0 0 1.948-1.53l2.571-2.319c.94-.82 1.84-1.746 2.708-2.618.858-.878 1.716-1.68 2.378-2.404 1.334-1.443 2.21-2.334 2.023-1.937-2.153 4.053-6.074 9.052-11.805 14.582-2.924 2.698-6.213 5.63-10.104 8.457-1.898 1.48-4.007 2.833-6.158 4.311-2.222 1.361-4.493 2.851-6.975 4.175-5.433 2.958 4.077-1.788 4.334-1.832a27.71 27.71 0 0 1-2.88 1.987c-1.791.952-3.566 1.935-5.421 2.754-1.085.498-2.15 1.036-3.246 1.501l-3.307 1.36 1.75-.689c3.577-1.421 6.92-3.095 9.938-4.752-1.134.686-2.375 1.48-3.735 2.196-1.457.753-2.966 1.577-4.48 2.313l-4.391 2.043c15.712-5.709 30.152-15.155 41.583-27.469 5.722-6.138 10.826-12.88 14.987-20.175a113.78 113.78 0 0 0 10.042-23.02c-3.822 12.031-9.78 23.084-16.94 32.43 13.018-17.578 20.78-39.129 21.808-61.354 0 1.225-.122 2.445-.203 3.665-.1 1.22-.15 2.445-.292 3.662-.312 2.43-.535 4.872-1.002 7.28-.756 4.847-1.983 9.61-3.371 14.317 2.74-8.508 4.378-17.477 5.022-26.498.672-9.028.112-18.111-1.28-26.913 2.391 11.66 2.788 24.869.75 37.923 1.432-8.42 1.795-17.099 1.245-25.704-.123-3.287-.511-6.552-.83-9.573-.457-3-.802-5.77-1.244-8.01 1.75 8.27 2.441 15.324 2.778 21.974-.323-14.512-3.33-29.216-9.233-43.027 3.222 7.501 5.867 15.57 7.482 23.867 1.624 8.288 2.299 16.767 1.915 24.924-.018-.955.021-1.909-.034-2.867l-.13-2.897c.348 13.146-1.677 26.177-5.69 38.43-2.014 6.126-4.501 12.08-7.512 17.744a115.74 115.74 0 0 1-10.372 16.134c4.45-5.198 9.15-12.545 12.9-20.616 3.732-8.088 6.504-16.835 8.41-24.475-2.804 13.719-8.37 27.256-16.444 39.344-8.053 12.099-18.6 22.736-30.804 30.9-12.19 8.19-26.02 13.858-40.211 16.658a114.633 114.633 0 0 1-21.395 2.192 114.456 114.456 0 0 1-21.035-1.836l3.64.692c1.215.23 2.446.358 3.667.54 2.443.392 4.913.54 7.376.766 4.935.278 9.896.371 14.842-.006 4.955-.263 9.878-1.002 14.778-1.904 2.43-.553 4.89-1.005 7.29-1.714 1.205-.337 2.424-.631 3.62-1.005l3.58-1.161c-1.808.56-3.71 1.301-5.742 1.845l-2.546.749a111.197 111.197 0 0 0 15.643-5.448 108.395 108.395 0 0 0 6.847-3.277 117.11 117.11 0 0 1-12.982 5.903 119.236 119.236 0 0 1-26.244 6.521c-1.345.213-2.572.28-3.67.395l-2.942.291c-1.732.137-3.01.199-3.904.297-1.79.178-2.044.344-1.332.48.711.138 2.388.247 4.45.305a82.678 82.678 0 0 0 6.714-.325c22.291-2.286 42.757-11.034 59.158-24.131 16.412-13.1 28.982-30.5 35.988-50.244.44-1.146.778-2.329 1.144-3.502.355-1.176.747-2.34 1.068-3.528.595-2.387 1.3-4.746 1.755-7.17l.75-3.616.59-3.65.292-1.826.208-1.838.415-3.676c.846-9.832.511-19.768-.984-29.52-.8-5.518-2.205-12.07-4.017-17.905l-1.393-4.221c-.485-1.341-1-2.606-1.458-3.796l-.675-1.715-.691-1.54-1.19-2.573c-3.796-7.705-8.568-15.054-14.154-21.889-5.58-6.837-11.99-13.168-19.218-18.681L180.45 1.69l-2.82-1.948-1.412-.977-1.458-.916-2.928-1.827c-3.993-2.307-8.082-4.53-12.393-6.375-4.267-1.936-8.732-3.507-13.276-4.913-2.297-.63-4.582-1.333-6.936-1.816-1.173-.253-2.336-.561-3.522-.773l-3.567-.631c-8.53-1.502-17.404-1.86-26.268-1.193-8.86.685-17.757 2.367-26.288 5.27l-3.193 1.106c-1.068.36-2.096.826-3.147 1.235-1.04.435-2.102.815-3.122 1.295L67.05-9.352c-1.032.456-2.03.98-3.024 1.509l-2.992 1.571-2.91 1.711c-.97.572-1.946 1.13-2.874 1.767L52.435-.943c-.948.602-1.825 1.306-2.74 1.953-.898.672-1.83 1.297-2.697 2.005l-2.614 2.104c-.883.685-1.717 1.428-2.548 2.171l-2.5 2.218-2.388 2.325c-.794.774-1.598 1.54-2.338 2.364-6.096 6.42-11.452 13.423-15.832 20.833A120.582 120.582 0 0 0 8.277 58.006c-5.301 15.654-6.822 31.53-6.114 45.87-.153-5.902-.178-14.368.912-22.724zm171.004 109.59a117.297 117.297 0 0 0 10.62-7.741c-3.44 2.834-6.976 5.451-10.62 7.741zm48.73-65.771c-.362 1.091-.669 2.17-1.069 3.2l-1.16 3.057-.564 1.512-.622 1.491a131.514 131.514 0 0 0-1.208 3.03 117.903 117.903 0 0 1-7.98 16.176c-3.055 5.18-6.596 10.034-10.379 14.589-1.868 2.3-3.904 4.435-5.905 6.568l-3.128 3.057c-1.026 1.028-2.15 1.944-3.213 2.913-.892.776-1.79 1.534-2.696 2.28a109.893 109.893 0 0 0 9.567-8.86 108.817 108.817 0 0 1-14.163 12.345c-1.255.875-2.468 1.813-3.772 2.637l-3.934 2.507-4.156 2.361c-1.414.785-2.907 1.483-4.403 2.248a89.913 89.913 0 0 1 3.253-1.827c1.237-.687 2.535-1.5 3.802-2.242 1.277-.728 2.438-1.528 3.403-2.197.964-.668 1.72-1.223 2.114-1.582-.562.382-1.134.748-1.704 1.12a112.05 112.05 0 0 0 1.826-1.23c-.025.028-.078.071-.122.11 13.246-9.046 24.53-20.934 32.985-34.486 8.493-13.54 14.019-28.815 16.31-44.348-.498 6.23-1.64 11.205-3.082 15.57zm-8.063-79.185zM204.51 30.4a111.921 111.921 0 0 1 9.419 17.39c.302.665.588 1.34.87 2.016 6.014 14.727 8.75 30.525 8.35 46.087.1-5.15-.24-10.296-.812-15.4-.645-5.881-1.839-11.693-3.421-17.376-3.105-11.399-8.146-22.202-14.546-32.05.587.812 1.207 1.691 1.848 2.624a39.774 39.774 0 0 1 1.926 2.985l-.773-1.344-.835-1.307-1.67-2.613c-1.136-1.725-2.368-3.388-3.554-5.08-1.287-1.615-2.507-3.285-3.846-4.859-1.013-1.155-1.984-2.348-3.011-3.488 3.625 3.822 7.029 7.924 10.055 12.415zm-85.117-49.004c1.778.095 3.56.268 5.34.401 1.46.122 2.91.338 4.348.5.431.019.887.048 1.459.112.57.079 1.252.225 2.143.429 6.627 1.105 12.673 2.766 16.964 4.482 8.237 3.117 15.901 6.996 22.852 11.476 6.954 4.47 13.194 9.556 18.473 15.11 2.433 2.64 1.723 2.065.382.783l2.014 2.137c-.892-.89-1.768-1.79-2.673-2.66l-2.788-2.533c.678.594 2.324 2.015 3.447 3.056-8.953-9.135-19.418-16.72-30.746-22.3-11.336-5.577-23.544-9.022-35.746-10.397 1.96.218 2.922.267 3.838.291-1.314-.154-2.633-.365-3.967-.486-1.792-.117-3.58-.277-5.359-.365l-5.283-.124c1.75-.002 3.523.047 5.302.088z"
  />
  <path
    xmlns="http://www.w3.org/2000/svg"
    d="m142.483 203.782.516-.151c-.54.145-1.072.305-1.616.443.368-.092.738-.182 1.1-.292zm53.897-46.696c5.131-6.77 9.665-14.859 12.56-21.827l-.035.007c-7.344 17.354-19.256 32.303-34.12 43.31a192.8 192.8 0 0 0 7.776-5.699c3.27-3.417 8.74-8.973 13.819-15.791zM44.833 177.314c8.69 7.77 19.17 14.53 30.834 19.085 4.549 1.712 9.19 3.212 13.938 4.269 2.355.608 4.76.984 7.147 1.431 1.196.212 2.408.33 3.61.5 1.204.156 2.406.332 3.62.403-5.476-.607-10.912-1.516-16.203-2.957-5.288-1.436-10.471-3.21-15.472-5.39a118.016 118.016 0 0 1-14.411-7.65c-4.588-2.919-8.938-6.177-13.063-9.69zm107.264 13.851-2.688 1.055-2.746.916c-1.817.655-3.692 1.144-5.561 1.664 1.879-.473 3.77-.914 5.602-1.52l2.767-.845 2.702-.988c-.105-.053-.72.067-.076-.282zm-31.738 6.892c-1.405.12-2.818.109-4.233.123-1.416.017-2.833.048-4.252-.046l1.91.18c.584.037 1.11.082 1.569.137 1.673-.143 3.334-.183 5.006-.394zm-56.03-13.033c1.625.954 3.35 1.794 5.063 2.72.429.234 1.207.502 2.182.858-2.085-.895-4.083-2.005-6.114-3.035-1.006-.534-1.974-1.133-2.96-1.69-.984-.562-1.964-1.123-2.895-1.751l1.136.758 1.183.708 2.406 1.432z"
  />
</g>
<path
  fill="#fff"
  d="M116.257 22.258c-2.615 7.076-8.307 39.226-13.383 67.223l-.615 2.922c14.306-1.076 29.996-1.23 42.764-.461l4.46-23.228c3.539-19.075 6-30.304 7.384-36.919 1.231-6.768 6.307-10.152 6-7.383 0 2.615-1.385 8.152-6.307 31.996-1.692 8.153-4.154 21.228-6.46 35.842.922 0 1.691.153 2.614.153 2 .154 8.307.77 11.691 2.462 2.923 1.692-5.538.769-11.999.153-.922 0-1.845-.153-2.768-.153v.461c-4.615 27.535-9.538 43.687-10.922 60.454l-.462 4.308c1.539 5.691 2.154 8.46 1.846 10.614 0 2-2.615 4.46-4.46 4-1.078-.155-2.154 0-1.693-1.539.154-.923.923-6.922 1.385-12.614l-.462-1.692c-3.692-16.306-20.305-28.612-37.842-38.15-2.615 14.922-3.845 23.536-2.768 27.074 1.384 6.461-3.385 4.615-3.385.308-.307-7.538.154-15.229 2.154-29.381-8.307-4.307-16.767-8-23.843-11.23-4.769-2.307-8.922-7.383 8.153-11.537 5.537-1.23 12.46-2.307 19.997-3.076 0-.462.154-1.077.308-1.538l11.075-60.147c1.231-6.46 4-11.076 6.461-13.383 2.615-2.308 2.461.769 1.077 4.46zm28.304 72.453v-.308c-14.767-.769-29.842.308-42.918 1.846l-4.153 21.382c16.921 9.23 32.304 21.075 38.457 34.919 1.538-15.075 4.769-34.304 8.614-57.84zm-73.683 10.768c7.23 2.922 15.075 6.153 22.612 9.999.77-5.23 1.846-11.23 3.077-18.46-6.46.923-12.46 1.846-17.229 2.923-13.383 3.076-9.999 5.076-8.46 5.538zM32.586 267.379c.644 0 1.166.522 1.166 1.165v5.063c0 2.669-2.119 4.759-4.824 4.759-2.669 0-4.759-2.09-4.759-4.76v-14.51H9.584v14.51c0 2.67-2.12 4.76-4.825 4.76-2.669 0-4.759-2.09-4.759-4.76v-38.539c0-2.669 2.09-4.759 4.76-4.759 2.704 0 4.824 2.09 4.824 4.76v14.51h4.838a1.167 1.167 0 0 1 0 2.333H8.417a1.167 1.167 0 0 1-1.166-1.166v-15.678c0-1.36-1.095-2.426-2.492-2.426-1.383 0-2.426 1.043-2.426 2.426v38.54c0 1.384 1.043 2.426 2.426 2.426 1.397 0 2.492-1.065 2.492-2.426V257.93c0-.644.522-1.167 1.166-1.167h16.919c.644 0 1.166.523 1.166 1.167v15.678c0 1.383 1.043 2.426 2.426 2.426 1.397 0 2.491-1.066 2.491-2.426v-5.063c0-.644.523-1.166 1.167-1.166zm-3.659-37.07c2.705 0 4.824 2.09 4.824 4.758v27.678a1.167 1.167 0 0 1-2.333 0v-27.678c0-1.36-1.094-2.426-2.49-2.426-1.384 0-2.427 1.043-2.427 2.426v15.678c0 .643-.523 1.166-1.167 1.166h-6.839a1.167 1.167 0 0 1 0-2.333h5.673v-14.51c0-2.67 2.09-4.76 4.76-4.76zm31.893 9.582H58.71v11.123h6.868c3.1 0 5.572-2.423 5.627-5.517-.054-3.125-2.527-5.606-5.627-5.606a1.167 1.167 0 0 1 0-2.333c4.386 0 7.883 3.487 7.96 7.94-.079 4.42-3.575 7.85-7.96 7.85h-8.034a1.167 1.167 0 0 1-1.167-1.167v-13.456c0-.644.523-1.166 1.167-1.166h3.275a1.167 1.167 0 0 1 0 2.333zm13.368 15.101a1.166 1.166 0 0 1 1.553 1.74 15.24 15.24 0 0 1-10.162 3.867H58.71v13.009c0 2.624-2.164 4.759-4.824 4.759a4.764 4.764 0 0 1-4.759-4.76v-16.884a1.167 1.167 0 0 1 2.333 0v16.885c0 1.315 1.11 2.426 2.426 2.426 1.373 0 2.491-1.089 2.491-2.426v-14.175c0-.644.523-1.167 1.167-1.167h8.034c3.184 0 6.242-1.163 8.609-3.274zm-8.608-24.684c8.387 0 15.21 6.824 15.21 15.211 0 2.076-.42 4.088-1.249 5.982a1.167 1.167 0 0 1-2.137-.936 12.504 12.504 0 0 0 1.053-5.046c0-7.101-5.777-12.878-12.878-12.878H53.887a2.429 2.429 0 0 0-2.426 2.426v17.114a1.167 1.167 0 0 1-2.333 0v-17.114a4.764 4.764 0 0 1 4.759-4.76h11.692zm40.155 24.365c-2.917-1.382-5.126-3.242-6.562-5.53-1.1-1.76-1.68-3.826-1.68-5.977 0-3.98 2.076-7.8 5.698-10.475 3.293-2.383 7.55-3.691 11.994-3.691 6.512 0 11.25 3.067 14.71 5.307l.164.107a4.622 4.622 0 0 1 1.922 2.893 4.352 4.352 0 0 1-.684 3.39 4.372 4.372 0 0 1-2.805 1.943 4.468 4.468 0 0 1-3.438-.659c-3.27-2.18-6.27-3.985-9.87-3.985-2.5 0-4.912.727-6.621 1.993-1.334.988-2.01 2.057-2.01 3.178 0 .637.101.926.28 1.21.148.238.533.731 1.438 1.357 1.56 1.08 4.33 2.05 7.61 2.667h.022a1.167 1.167 0 0 1 0 2.333h-.13c-.072 0-.143-.007-.213-.02-3.692-.683-6.752-1.77-8.617-3.062-.952-.659-1.655-1.345-2.088-2.039-.446-.712-.635-1.443-.635-2.446 0-1.307.512-3.244 2.954-5.053 2.102-1.558 5.021-2.45 8.01-2.45 4.253 0 7.572 1.982 11.164 4.376.494.33 1.081.443 1.653.32a2.099 2.099 0 0 0 1.349-.947c.35-.505.46-1.07.344-1.64a2.31 2.31 0 0 0-.935-1.421l-.133-.085c-3.216-2.082-7.619-4.933-13.442-4.933-3.957 0-7.728 1.152-10.615 3.242-3.011 2.225-4.743 5.36-4.743 8.592 0 1.713.458 3.351 1.324 4.739 1.196 1.9 3.075 3.47 5.585 4.658 2.113 1.001 4.744 1.798 8.038 2.435h.02c.071 0 .143.007.213.02 3.991.745 7.32 1.895 9.375 3.241 1.035.69 1.791 1.453 2.32 2.336.53.88.755 1.685.755 2.69 0 1.476-.57 3.653-3.285 5.644-2.29 1.68-5.518 2.643-8.855 2.643a1.167 1.167 0 0 1 0-2.333c2.852 0 5.576-.799 7.475-2.191 1.547-1.135 2.332-2.401 2.332-3.763 0-.581-.111-.971-.422-1.49-.353-.59-.864-1.094-1.607-1.59-1.75-1.147-4.815-2.195-8.41-2.874h-.022c-.073 0-.147-.007-.22-.021-3.541-.678-6.39-1.54-8.707-2.638zm26.704 2.445c1.124 1.798 1.744 3.99 1.744 6.169 0 4.243-2.225 8.28-6.103 11.072-3.459 2.54-7.995 3.943-12.766 3.943-7.407-.069-13.574-3.727-17.444-6.784-1.921-1.571-2.239-4.435-.723-6.397a4.567 4.567 0 0 1 6.43-.646c.895.732 1.94 1.452 3.024 2.082a22.293 22.293 0 0 0 4.065 1.873 1.166 1.166 0 1 1-.747 2.21 24.654 24.654 0 0 1-4.491-2.067 25.886 25.886 0 0 1-3.327-2.294c-.937-.767-2.37-.632-3.128.294-.718.929-.563 2.373.359 3.127 3.57 2.818 9.258 6.206 15.994 6.268 4.267 0 8.313-1.241 11.384-3.497 3.27-2.355 5.141-5.7 5.141-9.185 0-1.747-.494-3.499-1.39-4.934-1.224-1.968-3.204-3.6-6.054-4.991-1.245-.592-2.643-1.11-4.261-1.583a1.165 1.165 0 1 1 .653-2.239c1.74.507 3.25 1.07 4.62 1.72 3.267 1.594 5.56 3.51 7.022 5.86zm57.267-20.737c4.439 4.725 6.894 10.878 6.894 17.304 0 3.644-.76 7.157-2.257 10.44a1.165 1.165 0 1 1-2.122-.968 22.672 22.672 0 0 0 2.047-9.472c0-5.83-2.231-11.415-6.282-15.728-3.714-4.155-9.225-6.622-14.761-6.622a20.679 20.679 0 0 0-15.148 6.615c-3.973 4.23-6.157 9.815-6.157 15.735 0 5.984 2.182 11.567 6.144 15.722 3.956 4.214 9.48 6.628 15.16 6.628 5.479 0 10.992-2.47 14.748-6.608.156-.164.29-.308.423-.455a1.165 1.165 0 1 1 1.73 1.564c-.146.162-.295.323-.446.48-4.17 4.595-10.33 7.351-16.455 7.351-6.322 0-12.466-2.681-16.855-7.357-4.371-4.584-6.783-10.74-6.783-17.326 0-6.515 2.41-12.668 6.783-17.325 4.32-4.673 10.465-7.358 16.855-7.358 6.19 0 12.35 2.759 16.481 7.379zm-30.17 10.545c.608.212.93.876.718 1.483a16.004 16.004 0 0 0-.887 5.274c0 4.031 1.498 7.877 4.11 10.55 2.664 2.854 6.029 4.352 9.748 4.352 3.497 0 6.86-1.538 9.468-4.332 2.627-2.755 4.128-6.604 4.128-10.57 0-3.944-1.505-7.82-4.129-10.636-2.568-2.75-5.93-4.266-9.467-4.266-3.76 0-7.124 1.475-9.73 4.267-.18.189-.347.373-.509.562a1.167 1.167 0 0 1-1.772-1.517c.19-.221.385-.437.585-.646 3.049-3.267 7.004-4.999 11.426-4.999 4.19 0 8.159 1.78 11.173 5.009 3.023 3.243 4.756 7.7 4.756 12.227 0 4.56-1.737 8.996-4.765 12.17-3.045 3.264-7.014 5.065-11.164 5.065-4.32 0-8.381-1.801-11.435-5.073-3.015-3.087-4.755-7.528-4.755-12.162 0-2.07.342-4.103 1.016-6.04a1.163 1.163 0 0 1 1.485-.718zm62.016 7.747c-2.917-1.382-5.125-3.242-6.561-5.53-1.1-1.76-1.681-3.826-1.681-5.977 0-3.98 2.077-7.8 5.699-10.475 3.292-2.383 7.549-3.691 11.993-3.691 6.513 0 11.25 3.067 14.71 5.307l.164.107a4.622 4.622 0 0 1 1.922 2.893 4.352 4.352 0 0 1-.684 3.39 4.372 4.372 0 0 1-2.804 1.943 4.468 4.468 0 0 1-3.439-.659c-3.27-2.18-6.27-3.985-9.87-3.985-2.5 0-4.912.727-6.621 1.993-1.334.988-2.01 2.057-2.01 3.178 0 .637.102.926.28 1.21.148.238.533.731 1.438 1.357 1.56 1.08 4.33 2.05 7.61 2.667h.022a1.167 1.167 0 0 1 0 2.333h-.13c-.072 0-.143-.007-.213-.02-3.692-.683-6.752-1.77-8.616-3.062-.953-.659-1.656-1.345-2.089-2.039-.446-.712-.635-1.443-.635-2.446 0-1.307.512-3.244 2.954-5.053 2.102-1.558 5.022-2.45 8.01-2.45 4.253 0 7.572 1.982 11.164 4.376.494.33 1.081.443 1.653.32a2.099 2.099 0 0 0 1.349-.947c.35-.505.46-1.07.345-1.64a2.31 2.31 0 0 0-.936-1.421l-.133-.085c-3.215-2.082-7.619-4.933-13.442-4.933-3.957 0-7.728 1.152-10.615 3.242-3.01 2.225-4.743 5.36-4.743 8.592 0 1.713.458 3.351 1.324 4.739 1.196 1.9 3.075 3.47 5.586 4.658 2.113 1.001 4.743 1.798 8.038 2.435h.019c.072 0 .143.007.213.02 3.991.745 7.32 1.895 9.375 3.241 1.036.69 1.791 1.453 2.321 2.336.528.88.754 1.685.754 2.69 0 1.476-.57 3.653-3.285 5.644-2.29 1.68-5.518 2.643-8.855 2.643a1.167 1.167 0 0 1 0-2.333c2.852 0 5.576-.799 7.475-2.191 1.548-1.135 2.332-2.401 2.332-3.763 0-.581-.11-.971-.422-1.49-.353-.59-.863-1.094-1.606-1.59-1.751-1.147-4.816-2.195-8.411-2.874h-.022c-.073 0-.147-.007-.219-.021-3.542-.678-6.39-1.54-8.708-2.638zm26.705 2.445c1.123 1.798 1.743 3.99 1.743 6.169 0 4.243-2.224 8.28-6.102 11.072-3.46 2.54-7.996 3.943-12.767 3.943-7.407-.069-13.574-3.727-17.444-6.784-1.921-1.571-2.238-4.435-.723-6.397a4.567 4.567 0 0 1 6.43-.646c.895.732 1.941 1.452 3.025 2.082a22.293 22.293 0 0 0 4.064 1.873 1.166 1.166 0 1 1-.747 2.21 24.654 24.654 0 0 1-4.49-2.067 25.886 25.886 0 0 1-3.328-2.294c-.937-.767-2.37-.632-3.127.294-.718.929-.563 2.373.358 3.127 3.57 2.818 9.259 6.206 15.995 6.268 4.267 0 8.313-1.241 11.383-3.497 3.27-2.355 5.142-5.7 5.142-9.185 0-1.747-.494-3.499-1.39-4.934-1.224-1.968-3.204-3.6-6.055-4.991-1.245-.592-2.642-1.11-4.26-1.583a1.165 1.165 0 1 1 .652-2.239c1.74.507 3.25 1.07 4.62 1.72 3.267 1.594 5.56 3.51 7.022 5.86z"
/>
</svg>